<?xml version="1.0" encoding="UTF-8"?>
<svg xmlns="http://www.w3.org/2000/svg" viewBox="30.2 24.72 275.15 160.11">
  <defs>
    <style>
      .cls-2 { fill: #333; stroke-width: 0px; }
    </style>
  </defs>
  <g>
        <g>
          <path class="cls-2" d="M89.2,146.32v-24.36c-33,0-59,28.87-59,62.87h24.36c0-21,14.64-38.51,34.64-38.51Z"/>
          <path class="cls-2" d="M142.2,146.32v-24.36c-34,0-60.19,28.87-60.19,62.87h24.36c0-21,14.83-38.51,35.83-38.51Z"/>
          <path class="cls-2" d="M243.2,146.32v-24.36c34,0,62.15,28.87,62.15,62.87h-24.36c0-21-17.79-38.51-37.79-38.51Z"/>
          <path class="cls-2" d="M214.86,129.09l28.36-28.26h-29.31l-24.71,21.26v24.23c21,0,37.98,17.51,37.98,38.51h24.36c0-25-15.12-46.39-36.68-55.74Z"/>
          <path class="cls-2" d="M266.98,164.59c0,3.36-2.73,6.09-6.09,6.09s-6.09-2.73-6.09-6.09,2.73-6.09,6.09-6.09,6.09,2.73,6.09,6.09Z"/>
        </g>
        <polygon class="cls-2" points="184.2 80.82 184.2 61.06 175.74 42.89 166.94 24.72 157.07 42.89 147.2 61.06 147.2 80.82 141.2 80.82 141.2 92.72 147.2 98.81 147.2 184.82 184.2 184.82 184.2 98.81 190.2 92.72 190.2 80.82 184.2 80.82"/>
      </g>
</svg>
